<svg id="visual" viewBox="0 0 960 540" width="960" height="540" xmlns="http://www.w3.org/2000/svg" xmlns:xlink="http://www.w3.org/1999/xlink" version="1.1"><path d="M0 382L22.8 384C45.7 386 91.3 390 137 391.7C182.7 393.3 228.3 392.7 274 389.5C319.7 386.3 365.3 380.7 411.2 377.7C457 374.7 503 374.3 548.8 369.2C594.7 364 640.3 354 686 349.2C731.7 344.3 777.3 344.7 823 352.7C868.7 360.7 914.3 376.3 937.2 384.2L960 392L960 541L937.2 541C914.3 541 868.7 541 823 541C777.3 541 731.7 541 686 541C640.3 541 594.7 541 548.8 541C503 541 457 541 411.2 541C365.3 541 319.7 541 274 541C228.3 541 182.7 541 137 541C91.3 541 45.7 541 22.8 541L0 541Z" fill="#6600ff"></path><path d="M0 373L22.8 378.2C45.7 383.3 91.3 393.7 137 402.2C182.7 410.7 228.3 417.3 274 418.2C319.7 419 365.3 414 411.2 413.2C457 412.3 503 415.7 548.8 407.5C594.7 399.3 640.3 379.7 686 376.7C731.7 373.7 777.3 387.3 823 388.3C868.7 389.3 914.3 377.7 937.2 371.8L960 366L960 541L937.2 541C914.3 541 868.7 541 823 541C777.3 541 731.7 541 686 541C640.3 541 594.7 541 548.8 541C503 541 457 541 411.2 541C365.3 541 319.7 541 274 541C228.3 541 182.7 541 137 541C91.3 541 45.7 541 22.8 541L0 541Z" fill="#8f4cf4"></path><path d="M0 417L22.8 419.5C45.7 422 91.3 427 137 426.8C182.7 426.7 228.3 421.3 274 424.2C319.7 427 365.3 438 411.2 438.2C457 438.3 503 427.7 548.8 419.8C594.7 412 640.3 407 686 413.8C731.7 420.7 777.3 439.3 823 445C868.7 450.7 914.3 443.3 937.2 439.7L960 436L960 541L937.2 541C914.3 541 868.7 541 823 541C777.3 541 731.7 541 686 541C640.3 541 594.7 541 548.8 541C503 541 457 541 411.2 541C365.3 541 319.7 541 274 541C228.3 541 182.7 541 137 541C91.3 541 45.7 541 22.8 541L0 541Z" fill="#aa79e8"></path><path d="M0 448L22.8 451C45.7 454 91.3 460 137 461.3C182.7 462.7 228.3 459.3 274 462.3C319.7 465.3 365.3 474.7 411.2 472.2C457 469.7 503 455.3 548.8 452.5C594.7 449.7 640.3 458.3 686 464.7C731.7 471 777.3 475 823 477.2C868.7 479.3 914.3 479.7 937.2 479.8L960 480L960 541L937.2 541C914.3 541 868.7 541 823 541C777.3 541 731.7 541 686 541C640.3 541 594.7 541 548.8 541C503 541 457 541 411.2 541C365.3 541 319.7 541 274 541C228.3 541 182.7 541 137 541C91.3 541 45.7 541 22.8 541L0 541Z" fill="#bea3db"></path><path d="M0 484L22.8 488.8C45.7 493.7 91.3 503.3 137 508.2C182.7 513 228.3 513 274 511.8C319.7 510.7 365.3 508.3 411.2 503.7C457 499 503 492 548.8 489.3C594.7 486.7 640.3 488.3 686 492.2C731.7 496 777.3 502 823 505.2C868.7 508.3 914.3 508.7 937.2 508.8L960 509L960 541L937.2 541C914.3 541 868.7 541 823 541C777.3 541 731.7 541 686 541C640.3 541 594.7 541 548.8 541C503 541 457 541 411.2 541C365.3 541 319.7 541 274 541C228.3 541 182.7 541 137 541C91.3 541 45.7 541 22.8 541L0 541Z" fill="#cccccc"></path></svg>